<svg xmlns="http://www.w3.org/2000/svg" width="613.716" height="114.729" viewBox="0 0 613.716 114.729">
  <g id="Grupo_71" data-name="Grupo 71" transform="translate(-123.286 -111.418)">
    <g id="Grupo_3" data-name="Grupo 3" transform="translate(482.963 127.403)">
      <path id="Trazado_7" data-name="Trazado 7" d="M433.215,136.682v-3.727h10V126.72H426.389v22.5h6.826v-6.6h8.521v-5.939Zm15.625,9.186-1.07,3.357h-7.3l8.08-22.5h9.407l8.079,22.5h-7.267l-1.108-3.357ZM455.7,140l-1.768-5.387c-.334-.923-.517-1.7-.7-2.36-.148.664-.368,1.438-.664,2.36L450.758,140Zm27.58,1.882a18.139,18.139,0,0,1-7.12,1.513c-2.842,0-4.649-1.992-4.686-5.35,0-3.725,1.772-5.534,5.018-5.534a24.583,24.583,0,0,1,6.2,1.07l2.03-5.2a19.268,19.268,0,0,0-8.522-2.029c-7.3,0-11.7,4.206-11.7,11.695,0,7.379,4.391,11.511,11.327,11.511a19.649,19.649,0,0,0,9.666-2.546l-2.214-5.128Zm23.667-15.163h-6.862v11.621c0,3.467-1.217,4.943-3.653,4.943-2.4,0-3.615-1.476-3.615-4.943V126.72h-6.862v11.621c0,7.637,3.393,11.215,10.477,11.215,7.12,0,10.514-3.541,10.514-11.215V126.72Zm18.209,22.5v-6.272H515.49V126.72h-6.9v22.5Zm16.511-16.27H534.99v16.27h-6.863v-16.27h-6.678V126.72h20.218v6.234Zm4.814,12.913H555.3l1.108,3.357h7.267l-8.08-22.5h-9.407l-8.08,22.5h7.3l1.071-3.357ZM553.343,140H548.4l1.807-5.387c.3-.923.517-1.7.665-2.36.183.664.368,1.438.7,2.36l1.77,5.387Zm10.646-13.281v22.5h8.78c8.042,0,12.581-4.058,12.581-11.253s-4.539-11.252-12.581-11.252Zm6.9,16.638v-10.81h1.882c3.579,0,5.608,1.956,5.608,5.423s-2.03,5.387-5.608,5.387Z" transform="translate(-425.32 -126.351)" fill="#61a5d8" fill-rule="evenodd"/>
      <path id="Trazado_8" data-name="Trazado 8" d="M427.354,154.265v22.506h6.9v-5.646h2.214l4.131,5.646h7.343v-.776l-4.465-6.124c2.362-1.365,3.689-3.726,3.689-7.083,0-5.46-3.651-8.522-10.145-8.522Zm6.9,11.362V160.02h2.841c2.1,0,3.282,1,3.282,2.767a2.6,2.6,0,0,1-2.913,2.84Zm31.6,11.144v-5.794H455.3v-2.692h8.706V162.9H455.3V160.02h10.255v-5.755h-17.08v22.506Zm22.6-13.062H477.458v4.981h5.055V170.5a15.951,15.951,0,0,1-4.833.663c-2.841,0-4.574-1.991-4.574-5.57,0-3.541,1.88-5.681,5.016-5.681a31.2,31.2,0,0,1,7.674,1.143l1.66-5.129a27.167,27.167,0,0,0-10-2.029c-7.047,0-11.326,4.464-11.363,11.695,0,7.379,4.39,11.511,11.252,11.511a22.679,22.679,0,0,0,11.106-2.952v-10.44Zm8.613,13.062V154.265h-6.9v22.506ZM509.631,153.9c-7.231,0-11.622,4.206-11.622,11.695,0,7.379,4.391,11.511,11.622,11.511s11.62-4.132,11.62-11.511c0-7.489-4.389-11.695-11.62-11.695Zm0,17.045c-2.878,0-4.649-1.772-4.649-5.35,0-3.726,1.771-5.534,4.649-5.534,2.913,0,4.648,1.808,4.648,5.534,0,3.579-1.735,5.35-4.648,5.35Zm34.18,5.83V154.265h-6.9v11.4l-8.449-11.4h-6.234v22.506h6.9v-11.4l8.449,11.4Zm8.654-3.358h8.818l1.107,3.358h7.269l-8.081-22.506h-9.407l-8.08,22.506h7.305l1.07-3.358Zm6.863-5.867h-4.945l1.808-5.386c.3-.923.516-1.7.664-2.361.185.665.369,1.439.7,2.361l1.772,5.386Zm27.209,9.225V170.5h-9.667V154.265h-6.9v22.506Z" transform="translate(-425.252 -124.41)" fill="#61a5d8" fill-rule="evenodd"/>
      <path id="Trazado_9" data-name="Trazado 9" d="M444.612,183.645a30.41,30.41,0,0,0-10.036-1.662c-5.2,0-8.339,2.252-8.339,7.122,0,3.874,1.993,5.5,6.2,6.9,3.727,1.219,4.871,1.4,4.871,2.363,0,.7-.406,1.143-1.623,1.143a19.939,19.939,0,0,1-8.006-2.547l-2.288,5.24a22.492,22.492,0,0,0,10.625,2.988c5.313,0,8.744-2.657,8.744-7.527,0-4.354-2.767-5.608-6.087-6.789-3.653-1.29-4.982-1.327-4.982-2.4,0-.627.37-1,1.735-1a25.163,25.163,0,0,1,7.452,1.363l1.735-5.2Zm7.582,17.856-1.07,3.357h-7.306l8.08-22.5h9.408l8.08,22.5h-7.269l-1.107-3.357Zm6.861-5.867-1.771-5.386c-.332-.922-.517-1.7-.7-2.36-.148.665-.369,1.439-.664,2.36l-1.807,5.386Zm32.228,9.224v-22.5h-6.9v11.4l-8.45-11.4H469.7v22.5h6.9v-11.4l8.448,11.4Zm16.068-12.544v-3.726h10v-6.234H500.526v22.5h6.825v-6.6h8.523v-5.941Zm10.977-9.961v22.5h6.9v-5.645h2.214l4.132,5.645h7.342v-.773l-4.465-6.126c2.361-1.365,3.69-3.725,3.69-7.083,0-5.462-3.652-8.522-10.146-8.522Zm6.9,11.363v-5.607h2.84c2.1,0,3.284,1,3.284,2.766a2.606,2.606,0,0,1-2.915,2.841Zm21.234,7.784-1.071,3.357h-7.3l8.079-22.5h9.408l8.08,22.5h-7.268l-1.108-3.357Zm6.861-5.867-1.771-5.386c-.332-.922-.516-1.7-.7-2.36-.148.665-.368,1.439-.664,2.36l-1.808,5.386Zm32.228,9.224v-22.5h-6.9v11.4l-8.448-11.4h-6.236v22.5h6.9v-11.4l8.448,11.4Zm19.721-7.342a18.148,18.148,0,0,1-7.121,1.514c-2.841,0-4.649-1.992-4.687-5.35,0-3.725,1.772-5.532,5.018-5.532a24.573,24.573,0,0,1,6.2,1.068l2.029-5.2a19.253,19.253,0,0,0-8.522-2.031c-7.3,0-11.695,4.207-11.695,11.7,0,7.381,4.39,11.512,11.327,11.512a19.634,19.634,0,0,0,9.665-2.547l-2.213-5.129Zm9.758,7.342v-22.5h-6.9v22.5Zm20.348-21.213a30.4,30.4,0,0,0-10.035-1.662c-5.2,0-8.338,2.252-8.338,7.122,0,3.874,1.992,5.5,6.2,6.9,3.726,1.219,4.87,1.4,4.87,2.363,0,.7-.406,1.143-1.624,1.143a19.945,19.945,0,0,1-8.006-2.547l-2.287,5.24a22.493,22.493,0,0,0,10.626,2.988c5.312,0,8.743-2.657,8.743-7.527,0-4.354-2.767-5.608-6.087-6.789-3.651-1.29-4.981-1.327-4.981-2.4,0-.627.369-1,1.735-1a25.161,25.161,0,0,1,7.452,1.363l1.734-5.2Zm19.168,13.87a18.156,18.156,0,0,1-7.122,1.514c-2.841,0-4.648-1.992-4.685-5.35,0-3.725,1.772-5.532,5.018-5.532a24.561,24.561,0,0,1,6.2,1.068l2.03-5.2a19.25,19.25,0,0,0-8.522-2.031c-7.306,0-11.7,4.207-11.7,11.7,0,7.381,4.39,11.512,11.327,11.512a19.64,19.64,0,0,0,9.667-2.547l-2.213-5.129Zm13.262-15.533c7.231,0,11.622,4.207,11.622,11.7,0,7.381-4.391,11.512-11.622,11.512s-11.62-4.131-11.62-11.512c0-7.489,4.39-11.7,11.62-11.7Zm0,17.046c2.915,0,4.649-1.771,4.649-5.35,0-3.725-1.734-5.532-4.649-5.532-2.877,0-4.647,1.807-4.647,5.532C663.159,197.259,664.929,199.029,667.806,199.029Z" transform="translate(-425.39 -122.43)" fill="#2a4470" fill-rule="evenodd"/>
    </g>
    <rect id="Rectángulo_2" data-name="Rectángulo 2" width="0.546" height="114.729" transform="translate(458.816 111.418)" fill="#202122"/>
    <path id="Trazado_10" data-name="Trazado 10" d="M135.015,200.771h-3.466v5.847c0,1.748-.614,2.491-1.844,2.491-1.211,0-1.826-.743-1.826-2.491v-5.847h-3.465v5.847c0,3.845,1.714,5.646,5.291,5.646,3.6,0,5.311-1.781,5.311-5.646v-5.847Zm11.73,11.328V200.771H143.26v5.737l-4.267-5.737h-3.149V212.1h3.486v-5.74l4.267,5.74Zm4.612,0V200.771h-3.485V212.1Zm8.208,0h-3.986l-4.23-11.328h3.894l1.974,6.425c.131.407.243.836.354,1.262.112-.426.225-.855.354-1.262l2.142-6.425h3.727l-4.23,11.328Zm13.071,0v-2.917h-5.328v-1.354h4.4v-2.713h-4.4v-1.446h5.18v-2.9h-8.626V212.1Zm.589-11.328V212.1h3.485v-2.844h1.117l2.087,2.844h3.708v-.391l-2.256-3.083a3.817,3.817,0,0,0,1.865-3.565c0-2.749-1.845-4.289-5.125-4.289Zm3.485,5.72v-2.822h1.434c1.062,0,1.659.5,1.659,1.392a1.315,1.315,0,0,1-1.473,1.43Zm16.331-5.07-.874,2.617a12.834,12.834,0,0,0-3.766-.687c-.687,0-.875.186-.875.5,0,.538.671.558,2.517,1.207,1.676.594,3.074,1.224,3.074,3.417,0,2.45-1.734,3.786-4.417,3.786a11.386,11.386,0,0,1-5.365-1.5l1.155-2.637a10.06,10.06,0,0,0,4.044,1.281c.616,0,.819-.224.819-.577,0-.481-.577-.575-2.459-1.187-2.125-.705-3.131-1.522-3.131-3.474,0-2.45,1.584-3.583,4.212-3.583a15.409,15.409,0,0,1,5.068.836Zm4.24,10.678V200.771H193.8V212.1Zm1.129-11.328V212.1h4.434c4.061,0,6.353-2.044,6.353-5.664s-2.291-5.664-6.353-5.664Zm3.483,8.373V203.7h.951a2.722,2.722,0,1,1,0,5.44Zm10.7,1.263-.54,1.691h-3.691l4.081-11.328H217.2L221.28,212.1h-3.67l-.56-1.691Zm3.464-2.952-.894-2.71c-.168-.466-.261-.854-.353-1.189-.075.335-.187.724-.336,1.189l-.913,2.71Zm5.377-6.684V212.1h4.435c4.06,0,6.353-2.044,6.353-5.664s-2.292-5.664-6.353-5.664Zm3.485,8.373V203.7h.951a2.722,2.722,0,1,1,0,5.44Zm20.5-5.236v-3.138H235.217v3.138h3.373v8.19h3.466v-8.19Zm9.1,8.19v-2.917H249.2v-1.354h4.4v-2.713h-4.4v-1.446h5.178v-2.9h-8.625V212.1Zm9.605-3.7a9.217,9.217,0,0,1-3.6.761c-1.435,0-2.348-1-2.366-2.693,0-1.875.894-2.785,2.535-2.785a12.454,12.454,0,0,1,3.129.54l1.026-2.619a9.769,9.769,0,0,0-4.3-1.02c-3.691,0-5.907,2.117-5.907,5.885,0,3.716,2.216,5.793,5.721,5.793a9.957,9.957,0,0,0,4.881-1.279l-1.118-2.582Zm12.344,3.7V200.771H273v5.737l-4.268-5.737h-3.148V212.1h3.484v-5.74l4.267,5.74Zm6.345-11.514c-3.652,0-5.869,2.117-5.869,5.885,0,3.716,2.217,5.793,5.869,5.793s5.869-2.078,5.869-5.793c0-3.768-2.217-5.885-5.869-5.885Zm0,8.579c-1.453,0-2.347-.892-2.347-2.693,0-1.875.894-2.785,2.347-2.785,1.473,0,2.348.91,2.348,2.785,0,1.8-.875,2.693-2.348,2.693Zm14.73,2.935v-3.158h-4.882v-8.17h-3.485V212.1Zm5.822-11.514c3.653,0,5.87,2.117,5.87,5.885,0,3.716-2.217,5.793-5.87,5.793s-5.868-2.078-5.868-5.793c0-3.768,2.217-5.885,5.868-5.885Zm0,8.579c1.473,0,2.349-.892,2.349-2.693,0-1.875-.877-2.785-2.349-2.785-1.452,0-2.346.91-2.346,2.785,0,1.8.894,2.693,2.346,2.693Zm17.47-3.639h-5.552v2.507h2.552v.909a8.092,8.092,0,0,1-2.44.335c-1.434,0-2.31-1-2.31-2.806,0-1.781.95-2.858,2.534-2.858a15.784,15.784,0,0,1,3.874.575l.84-2.582a13.779,13.779,0,0,0-5.05-1.02c-3.559,0-5.72,2.247-5.74,5.885,0,3.716,2.219,5.793,5.684,5.793a11.483,11.483,0,0,0,5.608-1.485v-5.254ZM325.2,212.1V200.771h-3.484V212.1Zm9.959-3.7a9.213,9.213,0,0,1-3.6.761c-1.434,0-2.348-1-2.366-2.693,0-1.875.894-2.785,2.534-2.785a12.469,12.469,0,0,1,3.131.54l1.025-2.619a9.774,9.774,0,0,0-4.305-1.02c-3.689,0-5.906,2.117-5.906,5.885,0,3.716,2.217,5.793,5.72,5.793a9.957,9.957,0,0,0,4.881-1.279l-1.117-2.582Zm4.985,2.005-.54,1.691h-3.691l4.081-11.328h4.752l4.081,11.328h-3.67l-.56-1.691Zm3.464-2.952-.894-2.71c-.168-.466-.26-.854-.353-1.189-.075.335-.187.724-.336,1.189l-.913,2.71Zm20,4.644V200.771h-3.486v5.737l-4.265-5.737h-3.148V212.1h3.482v-5.74l4.269,5.74Zm4.37-1.691h4.453l.56,1.691h3.67l-4.081-11.328h-4.752L363.75,212.1h3.691l.539-1.691Zm3.465-2.952h-2.5l.913-2.71c.148-.466.261-.854.336-1.189.091.335.186.724.353,1.189l.894,2.71Zm13.928.947,1.118,2.582a9.957,9.957,0,0,1-4.881,1.279c-3.5,0-5.721-2.078-5.721-5.793,0-3.768,2.217-5.885,5.907-5.885a9.766,9.766,0,0,1,4.3,1.02l-1.025,2.619a12.461,12.461,0,0,0-3.13-.54c-1.641,0-2.534.91-2.534,2.785.017,1.691.932,2.693,2.366,2.693a9.208,9.208,0,0,0,3.6-.761Zm4.928,3.7V200.771h-3.484V212.1Zm6.344-11.514c-3.651,0-5.869,2.117-5.869,5.885,0,3.716,2.218,5.793,5.869,5.793s5.869-2.078,5.869-5.793c0-3.768-2.217-5.885-5.869-5.885Zm0,8.579c-1.453,0-2.346-.892-2.346-2.693,0-1.875.893-2.785,2.346-2.785,1.472,0,2.348.91,2.348,2.785,0,1.8-.877,2.693-2.348,2.693Zm17.265,2.935V200.771h-3.486v5.737l-4.265-5.737h-3.149V212.1h3.483v-5.74l4.268,5.74Zm4.37-1.691h4.452l.56,1.691h3.67l-4.081-11.328h-4.751L414.05,212.1h3.691l.54-1.691Zm3.466-2.952h-2.5l.913-2.71c.149-.466.261-.854.335-1.189.092.335.187.724.354,1.189l.895,2.71Zm13.742,4.644v-3.158h-4.882v-8.17h-3.484V212.1Z" transform="translate(-1.127 9.579)" fill="#05080a" fill-rule="evenodd"/>
    <g id="Grupo_4" data-name="Grupo 4" transform="translate(123.286 118.957)">
      <path id="Trazado_11" data-name="Trazado 11" d="M271.918,118.517H246.859v42.441c0,12.665-4.448,18.055-13.339,18.055-8.758,0-13.2-5.39-13.2-18.055V118.517H195.256v42.441c0,27.89,12.4,40.96,38.264,40.96,26,0,38.4-12.936,38.4-40.96V118.517Zm76.2,22.77v-22.77H274.279v22.77h24.386V200.7h25.059V141.287ZM429.293,200.7V118.517H404.1V160.15l-30.852-41.633h-22.77V200.7h25.2V159.072L406.521,200.7Z" transform="translate(-118.214 -118.457)" fill-rule="evenodd"/>
      <path id="Trazado_12" data-name="Trazado 12" d="M123.286,153.1h27.707v-.693a34.646,34.646,0,0,1-27.707-33.937v0h13.855a20.788,20.788,0,0,0,13.852,19.6v-19.6h13.85v19.6a20.792,20.792,0,0,0,13.854-19.6h13.852a34.651,34.651,0,0,1-27.706,33.937v.693h27.706v13.853H164.843v.693a34.652,34.652,0,0,1,27.706,33.937v0H178.7a20.792,20.792,0,0,0-13.854-19.6v19.6h-13.85v-19.6a20.79,20.79,0,0,0-13.852,19.6H123.286a34.648,34.648,0,0,1,27.707-33.937v-.693H123.286Z" transform="translate(-123.286 -118.461)" fill-rule="evenodd"/>
    </g>
  </g>
</svg>
